# xmcd
#
# Track frame offsets: 
#        150
#        16498
#        33921
#        53107
#        70743
#        91313
#        106415
#        123535
#        143250
#        162889
#        178994
#        197489
#        213124
#
# Disc length: 3117 seconds
#
# Revision: 7
# Processed by: cddbd v1.5.2PL0 Copyright (c) Steve Scherf et al.
# Submitted via: ExactAudioCopyFreeDBPlugin 1.0
#
DISCID=a90c2b0d
DTITLE=Rascal Flatts - Greatest Hits Volume 1
DYEAR=2008
DGENRE=Country
TTITLE0=Prayin' For Daylight
TTITLE1=I'm Movin' On
TTITLE2=These Days
TTITLE3=I Melt
TTITLE4=Mayberry
TTITLE5=Feels Like Today
TTITLE6=Bless The Broken Road
TTITLE7=Fast Cars And Freedom
TTITLE8=Skin (Sarabeth)
TTITLE9=What Hurts The Most
TTITLE10=My Wish
TTITLE11=Stand
TTITLE12=Life Is A Highway
EXTD=YEAR: 2008
EXTT0=
EXTT1=
EXTT2=
EXTT3=
EXTT4=
EXTT5=
EXTT6=
EXTT7=
EXTT8=
EXTT9=
EXTT10=
EXTT11=
EXTT12=
PLAYORDER=
